<svg width="14" height="14" viewBox="0 0 14 14" fill="none" xmlns="http://www.w3.org/2000/svg">
<path d="M2.7019 8.28943C2.7019 8.52583 2.89801 8.71924 3.13171 8.71924H6.28813L3.70927 6.14038H3.13171C2.89801 6.14038 2.7019 6.33648 2.7019 6.57019V8.28943ZM7 0.123047C3.20156 0.123047 0.123047 3.20156 0.123047 7C0.123047 10.7984 3.20156 13.877 7 13.877C10.7984 13.877 13.877 10.7984 13.877 7C13.877 3.20156 10.7984 0.123047 7 0.123047ZM7 12.1577C4.1552 12.1577 1.84229 9.844 1.84229 7C1.84229 5.88841 2.19822 4.85767 2.80264 4.01551L9.98583 11.1987C9.14368 11.8031 8.11213 12.1577 7 12.1577ZM8.21421 7H10.4385V7.85962H9.07356L8.21421 7ZM11.1987 9.98449L9.93345 8.71924H10.8683C11.1033 8.71924 11.2981 8.52448 11.2981 8.28943V6.57019C11.2981 6.33648 11.1047 6.14038 10.8683 6.14038H7.35459L4.01551 2.80264C4.85901 2.19822 5.88787 1.84229 7 1.84229C9.8448 1.84229 12.1577 4.1552 12.1577 7C12.1577 8.11213 11.8031 9.14368 11.1987 9.98449ZM8.73536 3.56152C8.31629 3.56152 7.96707 3.26066 7.89454 2.86577C7.87305 2.76906 7.78709 2.7019 7.68501 2.7019H7.24848C7.11417 2.7019 7.01679 2.82279 7.03358 2.95375C7.15849 3.78449 7.87305 4.42114 8.73536 4.42114C9.15711 4.42114 9.50633 4.7247 9.57886 5.1169C9.60035 5.2136 9.68631 5.28076 9.78839 5.28076H10.2228C10.3571 5.28076 10.4567 5.15988 10.4365 5.02892C10.3122 4.19818 9.60035 3.56152 8.73536 3.56152Z" fill="#6F7096"/>
</svg>
