<svg width="14" height="14" viewBox="0 0 14 14" fill="none" xmlns="http://www.w3.org/2000/svg">
<path d="M12.8959 10.1838L13.2452 10.8876C13.3417 11.0819 13.2623 11.3176 13.068 11.4141L11.4606 12.2216C11.0665 12.4172 10.5876 12.2509 10.4001 11.8519L8.85875 8.57138H5.42913C5.03811 8.57138 4.70662 8.28385 4.6513 7.89677C3.81923 2.07224 3.86703 2.43406 3.8577 2.28566C3.8577 1.39294 4.60212 0.674087 5.50407 0.715976C6.32099 0.753911 6.97846 1.4257 6.99999 2.24323C7.02131 3.05186 6.43153 3.72683 5.65917 3.84017L5.77384 4.64283H8.96484C9.18182 4.64283 9.3577 4.81871 9.3577 5.03569V5.8214C9.3577 6.03838 9.18182 6.21426 8.96484 6.21426H5.99833L6.11059 6.99997H9.3577C9.50688 6.99997 9.65297 7.04244 9.7789 7.12241C9.90482 7.20238 10.0054 7.31655 10.0688 7.45156L11.481 10.4571L12.3693 10.0066C12.5637 9.91008 12.7994 9.98944 12.8959 10.1838ZM8.35979 9.35709H7.75808C7.56686 10.688 6.41923 11.7142 5.03627 11.7142C3.51992 11.7142 2.28627 10.4806 2.28627 8.96423C2.28627 7.94514 2.84349 7.05374 3.66923 6.57871C3.57808 5.94117 3.50118 5.40357 3.43626 4.94999C1.84323 5.58723 0.714844 7.14636 0.714844 8.96423C0.714844 11.3471 2.65342 13.2857 5.03627 13.2857C6.80094 13.2857 8.32169 12.2223 8.9921 10.7028L8.35979 9.35709Z" fill="#6F7096"/>
</svg>
