<svg width="16" height="12" viewBox="0 0 16 12" fill="none" xmlns="http://www.w3.org/2000/svg">
<path d="M15.8727 3.08895C11.4435 -1.0304 4.55473 -1.02889 0.127229 3.08895C-0.0392713 3.2438 -0.0425213 3.50598 0.118479 3.66662L0.974479 4.52055C1.12798 4.67389 1.37498 4.67716 1.53448 4.5301C5.18248 1.16967 10.817 1.16891 14.4657 4.5301C14.6252 4.67716 14.8722 4.67364 15.0257 4.52055L15.8817 3.66662C16.0425 3.50598 16.0392 3.2438 15.8727 3.08895ZM7.99998 8.04413C7.11623 8.04413 6.39998 8.76433 6.39998 9.65296C6.39998 10.5416 7.11623 11.2618 7.99998 11.2618C8.88373 11.2618 9.59998 10.5416 9.59998 9.65296C9.59998 8.76433 8.88373 8.04413 7.99998 8.04413ZM13.0667 5.94285C10.1852 3.38055 5.81148 3.38331 2.93323 5.94285C2.76073 6.09619 2.75523 6.36241 2.91898 6.5248L3.77998 7.37923C3.92998 7.52805 4.17148 7.53811 4.33123 7.39934C6.42998 5.57509 9.57473 5.57911 11.6685 7.39934C11.8282 7.53811 12.0697 7.5283 12.2197 7.37923L13.0807 6.5248C13.2447 6.36241 13.239 6.09594 13.0667 5.94285Z" fill="#6F7096"/>
</svg>
