<svg width="19" height="19" viewBox="0 0 19 19" fill="none" xmlns="http://www.w3.org/2000/svg">
<path fill-rule="evenodd" clip-rule="evenodd" d="M2.70966 2.80157C1.58398 3.9647 1.58398 5.8098 1.58398 9.50001C1.58398 13.1902 1.58398 15.0353 2.70966 16.1984C2.74 16.2298 2.77086 16.2607 2.80221 16.291C3.96534 17.4167 5.81044 17.4167 9.50065 17.4167C13.1909 17.4167 15.036 17.4167 16.1991 16.291C16.2304 16.2607 16.2613 16.2298 16.2916 16.1984C17.4173 15.0353 17.4173 13.1902 17.4173 9.50001C17.4173 6.89535 17.4173 5.20991 17.0215 4.0347V13.4583C16.2611 13.4583 15.5319 13.1563 14.9943 12.6187L14.3992 12.0236C14.104 11.7284 13.9564 11.5808 13.8114 11.4796C13.124 11.0003 12.2107 11.0003 11.5233 11.4796C11.3782 11.5808 11.2306 11.7284 10.9354 12.0236L10.8458 12.1132C10.5787 12.3803 10.4451 12.5139 10.3213 12.5823C9.8987 12.8156 9.3698 12.7137 9.06409 12.3402C8.97453 12.2307 8.90011 12.0571 8.75127 11.7098L8.70899 11.6111C8.33584 10.7404 8.14926 10.3051 7.90516 10.0466C7.31486 9.42148 6.3911 9.24358 5.61086 9.60475C5.28822 9.75411 4.9533 10.089 4.28348 10.7588L2.77148 12.2708V2.73907C2.75065 2.75968 2.73004 2.78051 2.70966 2.80157Z" fill="#1E1C2A"/>
<path d="M2.71613 5.33375C2.58602 6.32119 2.58398 7.62726 2.58398 9.49999C2.58398 11.3727 2.58602 12.6788 2.71613 13.6662C2.8426 14.6261 3.07422 15.1372 3.42824 15.503C3.45099 15.5265 3.47414 15.5496 3.49766 15.5724L2.71613 5.33375ZM2.71613 5.33375C2.8426 4.37386 3.07422 3.8628 3.42824 3.497M2.71613 5.33375L3.42824 3.497M3.42824 3.497C3.451 3.47348 3.47414 3.45034 3.49766 3.42758M3.42824 3.497L3.49766 3.42758M3.49766 3.42758C3.86345 3.07357 4.37451 2.84194 5.33441 2.71547M3.49766 3.42758L5.33441 2.71547M5.33441 2.71547C6.32184 2.58537 7.62791 2.58333 9.50065 2.58333M5.33441 2.71547L9.50065 2.58333M9.50065 2.58333C11.3734 2.58333 12.6795 2.58537 13.6669 2.71547M9.50065 2.58333L13.6669 2.71547M13.6669 2.71547C14.6268 2.84194 15.1378 3.07357 15.5036 3.42758M13.6669 2.71547L15.5036 3.42758M15.5036 3.42758C15.5272 3.45034 15.5503 3.47348 15.5731 3.49701M15.5036 3.42758L15.5731 3.49701M15.5731 3.49701C15.9271 3.8628 16.1587 4.37386 16.2852 5.33375M15.5731 3.49701L16.2852 5.33375M16.2852 5.33375C16.4153 6.32119 16.4173 7.62726 16.4173 9.49999M16.2852 5.33375L16.4173 9.49999M16.4173 9.49999C16.4173 11.3727 16.4153 12.6788 16.2852 13.6662M16.4173 9.49999L16.2852 13.6662M16.2852 13.6662C16.1587 14.6261 15.9271 15.1372 15.5731 15.503L16.2852 13.6662ZM13.6669 16.2845C14.6268 16.158 15.1378 15.9264 15.5036 15.5724L13.6669 16.2845ZM13.6669 16.2845C12.6795 16.4146 11.3734 16.4167 9.50065 16.4167M13.6669 16.2845L9.50065 16.4167M9.50065 16.4167C7.62791 16.4167 6.32184 16.4146 5.33441 16.2845M9.50065 16.4167L5.33441 16.2845M5.33441 16.2845C4.37452 16.158 3.86346 15.9264 3.49766 15.5724L5.33441 16.2845Z" stroke="#1E1C2A" stroke-width="2"/>
<circle cx="11.8743" cy="7.12501" r="1.58333" fill="#1E1C2A"/>
</svg>
