<svg width="14" height="14" viewBox="0 0 14 14" fill="none" xmlns="http://www.w3.org/2000/svg">
<path d="M13.6673 7.00004C13.6673 3.31804 10.6827 0.333374 7.00065 0.333374C3.31865 0.333374 0.333984 3.31804 0.333984 7.00004C0.333984 10.682 3.31865 13.6667 7.00065 13.6667C10.6827 13.6667 13.6673 10.682 13.6673 7.00004ZM4.00065 4.82937C4.23198 4.57471 4.61065 4.33337 5.16732 4.33337C5.93532 4.33337 6.42998 4.86137 6.60398 5.44071C6.77265 6.00537 6.67065 6.70404 6.19065 7.18604C6.02417 7.34609 5.84758 7.49529 5.66198 7.63271L5.63532 7.65337C5.44865 7.79737 5.28198 7.92804 5.13532 8.07337C4.96532 8.24404 4.82598 8.43004 4.74532 8.66671H6.16732C6.29993 8.66671 6.4271 8.71939 6.52087 8.81315C6.61464 8.90692 6.66732 9.0341 6.66732 9.16671C6.66732 9.29932 6.61464 9.42649 6.52087 9.52026C6.4271 9.61403 6.29993 9.66671 6.16732 9.66671H4.16732C4.03471 9.66671 3.90753 9.61403 3.81376 9.52026C3.72 9.42649 3.66732 9.29932 3.66732 9.16671C3.66732 8.33537 4.01665 7.77804 4.42998 7.36604C4.62732 7.16871 4.84198 7.00271 5.02332 6.86204L5.02532 6.86071C5.21598 6.71337 5.36398 6.59871 5.48198 6.48071C5.66332 6.29804 5.72665 5.99737 5.64598 5.72737C5.56932 5.47337 5.39932 5.33337 5.16732 5.33337C4.93198 5.33337 4.81065 5.42471 4.74065 5.50204C4.6997 5.54724 4.66637 5.5988 4.64198 5.65471V5.65671C4.60114 5.78295 4.51182 5.8878 4.39367 5.94818C4.27552 6.00857 4.13823 6.01955 4.01198 5.97871C3.88574 5.93786 3.78089 5.84854 3.72051 5.7304C3.66012 5.61225 3.64914 5.47495 3.68998 5.34871L3.71332 5.28471C3.78182 5.11749 3.87881 4.96343 3.99998 4.82937H4.00065ZM7.83398 4.33337C7.96659 4.33337 8.09377 4.38605 8.18754 4.47982C8.28131 4.57359 8.33398 4.70077 8.33398 4.83337V6.66671H9.33398V4.83337C9.33398 4.70077 9.38666 4.57359 9.48043 4.47982C9.5742 4.38605 9.70138 4.33337 9.83398 4.33337C9.96659 4.33337 10.0938 4.38605 10.1875 4.47982C10.2813 4.57359 10.334 4.70077 10.334 4.83337V9.14671C10.334 9.27931 10.2813 9.40649 10.1875 9.50026C10.0938 9.59403 9.96659 9.64671 9.83398 9.64671C9.70138 9.64671 9.5742 9.59403 9.48043 9.50026C9.38666 9.40649 9.33398 9.27931 9.33398 9.14671V7.66671H7.83398C7.70138 7.66671 7.5742 7.61403 7.48043 7.52026C7.38666 7.42649 7.33398 7.29931 7.33398 7.16671V4.83337C7.33398 4.70077 7.38666 4.57359 7.48043 4.47982C7.5742 4.38605 7.70138 4.33337 7.83398 4.33337Z" fill="#6F7096"/>
</svg>
